ply
format ascii 1.0
comment Saved by Easy3D (Contact: liangliang.nan@gmail.com)
element vertex 80
property float x
property float y
property float z
element edge 120
property list uint32 int vertex_indices
end_header
4.58794 3.33333 18.0087
14.0557 3.33333 12.1573
9.17588 6.66667 14.8469
7.51363 12.3377 12.1573
-1.75244 5.39345 18.0087
1.17325 14.3978 12.1573
-3.50487 10.7869 14.8469
-9.41198 10.9584 12.1573
-5.671 -1.7484e-06 18.0087
-13.3306 5.56498 12.1573
-11.342 -2.38419e-06 14.8469
-13.3306 -5.56499 12.1573
-1.75244 -5.39345 18.0087
-9.41198 -10.9584 12.1573
-3.50487 -10.7869 14.8469
1.17325 -14.3978 12.1573
4.58794 -3.33333 18.0087
7.51363 -12.3377 12.1573
9.17588 -6.66667 14.8469
14.0557 -3.33333 12.1573
18.6436 9.53674e-07 2.98142
16.8354 -5.56498 -6.4863
18.3518 2.22524e-06 -3.50487
16.8354 5.56499 -6.4863
5.76119 17.7311 2.98143
10.4951 14.2918 -6.4863
5.67101 17.4536 -3.50487
-0.0901844 17.7311 -6.4863
-15.083 10.9584 2.98142
-10.3491 14.3978 -6.4863
-14.8469 10.7869 -3.50487
-16.8912 5.39344 -6.4863
-15.083 -10.9584 2.98142
-16.8912 -5.39345 -6.4863
-14.8469 -10.7869 -3.50487
-10.3491 -14.3978 -6.4863
5.76119 -17.7311 2.98142
-0.0901829 -17.7311 -6.4863
5.67101 -17.4536 -3.50488
10.4951 -14.2918 -6.4863
15.083 10.9584 -2.98142
10.3491 14.3978 6.4863
14.8469 10.7869 3.50487
16.8912 5.39345 6.4863
-5.76119 17.7311 -2.98142
-10.495 14.2918 6.4863
-5.67101 17.4536 3.50487
0.0901847 17.7311 6.4863
-18.6436 -1.7484e-06 -2.98142
-16.8354 -5.56499 6.4863
-18.3518 -2.38419e-06 3.50487
-16.8354 5.56499 6.4863
-5.76119 -17.7311 -2.98143
0.0901866 -17.7311 6.4863
-5.671 -17.4536 3.50487
-10.495 -14.2918 6.4863
15.083 -10.9584 -2.98142
16.8912 -5.39345 6.4863
14.8469 -10.7869 3.50487
10.3491 -14.3978 6.4863
1.75244 5.39345 -18.0087
-1.17325 14.3978 -12.1573
3.50487 10.7869 -14.8469
9.41199 10.9584 -12.1573
-4.58794 3.33333 -18.0087
-14.0557 3.33333 -12.1573
-9.17588 6.66667 -14.8469
-7.51363 12.3377 -12.1573
-4.58794 -3.33333 -18.0087
-7.51363 -12.3377 -12.1573
-9.17588 -6.66667 -14.8469
-14.0557 -3.33333 -12.1573
1.75244 -5.39344 -18.0087
9.41199 -10.9584 -12.1573
3.50488 -10.7869 -14.8469
-1.17325 -14.3978 -12.1573
5.67101 1.58946e-06 -18.0087
13.3306 5.56499 -12.1573
11.342 2.22524e-06 -14.8469
13.3306 -5.56498 -12.1573
2 0 16
2 0 2
2 0 4
2 1 19
2 1 43
2 1 2
2 2 3
2 3 41
2 3 5
2 4 6
2 4 8
2 5 47
2 5 6
2 6 7
2 7 45
2 7 9
2 8 10
2 8 12
2 9 51
2 9 10
2 10 11
2 11 49
2 11 13
2 12 14
2 12 16
2 13 55
2 13 14
2 14 15
2 15 53
2 15 17
2 16 18
2 17 59
2 17 18
2 18 19
2 19 57
2 20 57
2 20 22
2 20 43
2 21 56
2 21 79
2 21 22
2 22 23
2 23 77
2 23 40
2 24 41
2 24 26
2 24 47
2 25 40
2 25 63
2 25 26
2 26 27
2 27 61
2 27 44
2 28 45
2 28 30
2 28 51
2 29 44
2 29 67
2 29 30
2 30 31
2 31 65
2 31 48
2 32 49
2 32 34
2 32 55
2 33 48
2 33 71
2 33 34
2 34 35
2 35 69
2 35 52
2 36 53
2 36 38
2 36 59
2 37 52
2 37 75
2 37 38
2 38 39
2 39 73
2 39 56
2 40 42
2 41 42
2 42 43
2 44 46
2 45 46
2 46 47
2 48 50
2 49 50
2 50 51
2 52 54
2 53 54
2 54 55
2 56 58
2 57 58
2 58 59
2 60 64
2 60 62
2 60 76
2 61 67
2 61 62
2 62 63
2 63 77
2 64 68
2 64 66
2 65 71
2 65 66
2 66 67
2 68 72
2 68 70
2 69 75
2 69 70
2 70 71
2 72 76
2 72 74
2 73 79
2 73 74
2 74 75
2 76 78
2 77 78
2 78 79
