# OBJ exported from Easy3D
v 5.0000000000 5.0000000000 -5.0000000000
v 5.0000000000 -5.0000000000 -5.0000000000
v -5.0000000000 -5.0000000000 -5.0000000000
v -5.0000000000 5.0000000000 -5.0000000000
v 5.0000000000 5.0000000000 5.0000000000
v -5.0000000000 5.0000000000 5.0000000000
v -5.0000000000 -5.0000000000 5.0000000000
v 5.0000000000 -5.0000000000 5.0000000000
vn 0.5773503184 0.5773503184 -0.5773503184
vn 0.5773503184 -0.5773503184 -0.5773503184
vn -0.5773503184 -0.5773503184 -0.5773503184
vn -0.5773503184 0.5773503184 -0.5773503184
vn 0.5773503184 0.5773503184 0.5773503184
vn -0.5773503184 0.5773503184 0.5773503184
vn -0.5773503184 -0.5773503184 0.5773503184
vn 0.5773503184 -0.5773503184 0.5773503184
vt 0.0000000000 0.0000000000
vt 0.0000000000 0.0000000000
vt 0.0000000000 0.0000000000
vt 0.0000000000 0.0000000000
vt 0.0000000000 0.0000000000
vt 0.0000000000 0.0000000000
vt 0.0000000000 0.0000000000
vt 0.0000000000 0.0000000000
vt 0.0000000000 0.0000000000
vt 0.0000000000 0.0000000000
vt 0.0000000000 0.0000000000
vt 0.0000000000 0.0000000000
vt 0.0000000000 0.0000000000
vt 0.0000000000 0.0000000000
vt 0.0000000000 0.0000000000
vt 0.0000000000 0.0000000000
vt 0.0000000000 0.0000000000
vt 0.0000000000 0.0000000000
vt 0.0000000000 0.0000000000
vt 0.0000000000 0.0000000000
vt 0.0000000000 0.0000000000
vt 0.0000000000 0.0000000000
vt 0.0000000000 0.0000000000
vt 0.0000000000 0.0000000000
f 2/7/2 3/1/3 4/3/4 1/5/1
f 6/15/6 7/9/7 8/11/8 5/13/5
f 8/19/8 7/12/7 3/17/3 2/2/2
f 5/21/5 8/14/8 2/20/2 1/8/1
f 6/23/6 5/16/5 1/22/1 4/6/4
f 7/18/7 6/10/6 4/24/4 3/4/3
