/* XPM */
static char * black_white_xpm[] = {
"20 20 178 2",
". 	c #000000",
"D.	c #070708",
"<.	c #080808",
"R 	c #080809",
">.	c #080908",
"@.	c #080909",
"G 	c #090809",
"/ 	c #090909",
"+ 	c #090A09",
"e 	c #0A090A",
"w.	c #151515",
"[.	c #151516",
"K.	c #151615",
"6.	c #161516",
"c.	c #161615",
"H 	c #161616",
"( 	c #161617",
"5 	c #161716",
"@ 	c #161717",
"m.	c #232222",
"L.	c #232223",
"S.	c #232322",
",.	c #232323",
"#.	c #232324",
"}.	c #232423",
"s 	c #232424",
"Y 	c #242323",
"S 	c #242324",
"_ 	c #242424",
"# 	c #242425",
"n.	c #303030",
"7.	c #303031",
"$.	c #303131",
"|.	c #313030",
"^.	c #313031",
"t 	c #313131",
": 	c #313231",
"6 	c #323131",
"$ 	c #323232",
"E.	c #3D3D3E",
"o.	c #3D3E3E",
"d.	c #3E3E3D",
"'.	c #3E3E3E",
"Z 	c #3E3F3E",
"u 	c #3E3F3F",
"I 	c #3F3E3E",
"f 	c #3F3E3F",
"% 	c #3F3F3F",
"p.	c #4B4B4B",
"1.	c #4C4B4B",
"%.	c #4C4B4C",
").	c #4C4C4B",
"v 	c #4C4C4C",
"& 	c #4C4C4D",
"g 	c #4C4D4C",
"7 	c #4C4D4D",
"M.	c #585858",
"e.	c #585859",
"q.	c #595858",
"J 	c #595959",
"h 	c #59595A",
"T 	c #595A59",
"* 	c #595A5A",
"< 	c #5A595A",
"8 	c #5A5A5A",
"N.	c #666566",
"` 	c #666666",
"K 	c #666766",
"/.	c #666767",
"!.	c #676666",
"&.	c #676667",
"= 	c #676767",
"r.	c #737373",
"F.	c #737374",
"(.	c #737473",
"~.	c #737474",
"8.	c #747373",
"f.	c #747374",
"w 	c #747474",
"[ 	c #747574",
"- 	c #757474",
"i 	c #757475",
"9 	c #757575",
"T.	c #808180",
"g.	c #818081",
" .	c #818181",
"9.	c #818182",
"L 	c #818281",
"*.	c #828181",
"_.	c #828182",
"j 	c #828281",
"} 	c #828282",
"; 	c #838282",
"G.	c #8E8E8E",
"0.	c #8E8F8E",
":.	c #8E8F8F",
"{.	c #8F8F8E",
"0 	c #8F8F8F",
"k 	c #8F8F90",
"> 	c #8F908F",
"x 	c #8F9090",
"| 	c #908F90",
"O.	c #9B9B9B",
"h.	c #9B9C9B",
"H.	c #9C9B9B",
"x.	c #9C9C9B",
"U 	c #9C9C9C",
"..	c #9C9D9C",
"M 	c #9C9D9D",
"l 	c #9D9C9C",
"y 	c #9D9C9D",
", 	c #9D9D9D",
"U.	c #A8A9A9",
"P.	c #A9A9A8",
"i.	c #A9A9A9",
"2.	c #A9AAA9",
"a.	c #AAA9A9",
"=.	c #AAA9AA",
"m 	c #AAAAAA",
"1 	c #AAABAA",
"' 	c #AAABAB",
"a 	c #ABAAAA",
"j.	c #B6B6B6",
"Q.	c #B6B7B6",
"s.	c #B7B6B6",
"3.	c #B7B6B7",
"y.	c #B7B7B6",
"N 	c #B7B7B7",
"V 	c #B8B7B7",
"n 	c #B8B7B8",
") 	c #B8B8B7",
"2 	c #B8B8B8",
"I.	c #C3C4C3",
"z.	c #C3C4C4",
"].	c #C4C4C4",
"4.	c #C4C4C5",
"O 	c #C4C5C5",
"D 	c #C5C4C5",
"W 	c #C5C5C4",
"b 	c #C5C5C5",
"3 	c #C5C5C6",
"! 	c #C6C5C5",
"A.	c #D1D1D1",
"k.	c #D1D1D2",
"b.	c #D1D2D1",
"t.	c #D2D1D2",
"-.	c #D2D2D1",
"E 	c #D2D2D2",
"o 	c #D2D2D3",
"z 	c #D2D3D2",
"c 	c #D3D2D2",
"4 	c #D3D3D2",
"~ 	c #D3D3D3",
"B.	c #DEDFDF",
"R.	c #DFDFDE",
"P 	c #DFDFDF",
";.	c #DFDFE0",
"A 	c #DFE0DF",
"p 	c #DFE0E0",
"X 	c #E0DFE0",
"{ 	c #E0E0E0",
"V.	c #ECECEB",
"u.	c #ECECEC",
"5.	c #EDECEC",
"+.	c #EDECED",
"d 	c #EDEDED",
"q 	c #EDEEED",
"B 	c #EDEEEE",
"] 	c #EEEEED",
"J.	c #F9F9F9",
"l.	c #F9FAF9",
"v.	c #F9FAFA",
"C.	c #FAF9FA",
"F 	c #FAFAFA",
"C 	c #FAFBFA",
"r 	c #FAFBFB",
"Q 	c #FBFAFA",
"^ 	c #FBFBFB",
/* pixels */
". + @ # $ % & * = - ; > , ' ) ! ~ { ] ^ ",
". / ( _ : % & < = [ } | , 1 2 3 4 { ] ^ ",
". / 5 _ 6 % 7 8 = 9 } 0 , a 2 b c { d ^ ",
". e @ _ : f g h = i j k l m n b o p q r ",
". / ( s t u v < = w } x y m 2 b z A B C ",
". / ( _ t f v 8 = i } 0 , m ) D E p d F ",
". G H _ : I v J K i L 0 M m N O E P d Q ",
". R H S t % v T = w j 0 U m V W E X d Q ",
". / H Y t Z v * ` w  .0 ..m N W E P +.F ",
". @.H #.$.I %.J &.w *.0 y =.N O -.;.+.F ",
". >.H ,.t '.).J !.~. .{.U m N ].E P +.C ",
". R H ,.^.'.%.J /.(._.:.U =.N b -.P +.F ",
". <.[.}.|.'.1.J ` w  .:.U 2.3.4.E P 5.F ",
". <.6.,.7.'.).J ` 8.9.0.U a.3.].b.P +.F ",
". >.c.,.7.d.%.e.` f.g.:.h.i.j.].k.P 5.l.",
". <.c.m.n.o.p.q.` r. .{.U i.s.].t.P u.v.",
". <.w.,.^.'.p.q.` r. .0.x.i.y.z.A.B.u.C.",
". D.w.,.7.E.p.q.` F. .G.H.i.j.I.A.B.u.J.",
". <.K.L.n.E.p.M.N.r. .G.O.P.Q.].A.R.u.C.",
". <.w.S.n.E.p.M.` r.T.G.O.U.Q.z.A.R.V.v."};
