/* XPM */
static char *blue_red[] = {
/* width height num_colors chars_per_pixel */
"    20    20       60            1",
/* colors */
". c #0000f8",
"# c #0800f8",
"a c #1000f8",
"b c #1800f8",
"c c #2000f8",
"d c #2800f8",
"e c #3000f0",
"f c #3800e8",
"g c #3800f0",
"h c #4000e0",
"i c #4000e8",
"j c #4800d8",
"k c #4800e0",
"l c #5000d0",
"m c #5000d8",
"n c #5800c8",
"o c #5800d0",
"p c #6000c0",
"q c #6000c8",
"r c #6800b8",
"s c #6800c0",
"t c #7000b0",
"u c #7000b8",
"v c #7800a8",
"w c #7800b0",
"x c #8000a0",
"y c #8000a8",
"z c #880098",
"A c #8800a0",
"B c #900090",
"C c #900098",
"D c #980088",
"E c #980090",
"F c #a00080",
"G c #a00088",
"H c #a80078",
"I c #a80080",
"J c #b00070",
"K c #b00078",
"L c #b80068",
"M c #b80070",
"N c #c00060",
"O c #c00068",
"P c #c80058",
"Q c #c80060",
"R c #d00050",
"S c #d00058",
"T c #d80048",
"U c #d80050",
"V c #e00040",
"W c #e00048",
"X c #e80038",
"Y c #e80040",
"Z c #f00030",
"0 c #f00038",
"1 c #f80008",
"2 c #f80010",
"3 c #f80018",
"4 c #f80020",
"5 c #f80028",
/* pixels */
".acefjnswxBGKLPTYZ42",
".acefjnswxBGKLPTYZ42",
".acefjnswxBGKLPTYZ42",
".acefjnswxBGKLPTYZ42",
".acefjnswxBGKLPTYZ42",
".acefjnswxBGKLPTYZ42",
".acefjnswxBGKLPTYZ42",
".acefjnswxBGKLPTYZ42",
".acefjnswxBGKLPTYZ42",
".acefjnswxBGKLPTYZ42",
".acefjnswxBGKLPTYZ42",
".acefjnswxBGKLPTYZ42",
".acefjnswxBGKLPTYZ42",
".acefjnswxBGKLPTYZ42",
".acefjnswxBGKLPTYZ42",
".acefjnswxBGKLPTYZ42",
".acefjnswxBGKLPTYZ42",
".acefjnswxBGKLPTYZ42",
".acefjnswxBGKLPTYZ42",
".acefjnswxBGKLPTYZ42"
};
