/* XPM */
static char *blue_white[] = {
/* width height num_colors chars_per_pixel */
"    20    20       93            2",
/* colors */
".. c #0804f8",
".# c #0808f8",
".a c #080cf8",
".b c #100cf8",
".c c #1010f8",
".d c #1014f8",
".e c #1814f8",
".f c #1818f8",
".g c #181cf8",
".h c #201cf8",
".i c #2020f8",
".j c #2024f8",
".k c #2824f8",
".l c #2828f8",
".m c #282cf8",
".n c #302cf8",
".o c #3030f8",
".p c #3034f8",
".q c #3834f8",
".r c #3838f8",
".s c #383cf8",
".t c #403cf8",
".u c #4040f8",
".v c #4044f8",
".w c #4844f8",
".x c #4848f8",
".y c #484cf8",
".z c #504cf8",
".A c #5050f8",
".B c #5054f8",
".C c #5854f8",
".D c #5858f8",
".E c #585cf8",
".F c #605cf8",
".G c #6060f8",
".H c #6064f8",
".I c #6864f8",
".J c #6868f8",
".K c #686cf8",
".L c #706cf8",
".M c #7070f8",
".N c #7074f8",
".O c #7874f8",
".P c #7878f8",
".Q c #787cf8",
".R c #807cf8",
".S c #8080f8",
".T c #8084f8",
".U c #8884f8",
".V c #8888f8",
".W c #888cf8",
".X c #908cf8",
".Y c #9090f8",
".Z c #9094f8",
".0 c #9894f8",
".1 c #9898f8",
".2 c #989cf8",
".3 c #a09cf8",
".4 c #a0a0f8",
".5 c #a0a4f8",
".6 c #a8a4f8",
".7 c #a8a8f8",
".8 c #a8acf8",
".9 c #b0acf8",
"#. c #b0b0f8",
"## c #b0b4f8",
"#a c #b8b4f8",
"#b c #b8b8f8",
"#c c #b8bcf8",
"#d c #c0bcf8",
"#e c #c0c0f8",
"#f c #c0c4f8",
"#g c #c8c4f8",
"#h c #c8c8f8",
"#i c #c8ccf8",
"#j c #d0ccf8",
"#k c #d0d0f8",
"#l c #d0d4f8",
"#m c #d8d4f8",
"#n c #d8d8f8",
"#o c #d8dcf8",
"#p c #e0dcf8",
"#q c #e0e0f8",
"#r c #e0e4f8",
"#s c #e8e4f8",
"#t c #e8e8f8",
"#u c #e8ecf8",
"#v c #f0ecf8",
"#w c #f0f0f8",
"#x c #f0f4f8",
"#y c #f8f4f8",
"#z c #f8f8f8",
"#A c #f8fcf8",
/* pixels */
"...d.i.o.t.y.E.J.P.U.Z.4#.#d#i#n#t#x#A#A",
"...d.i.o.t.y.E.J.P.U.Z.4#.#d#i#n#t#x#A#A",
"...d.i.o.t.y.E.J.P.U.Z.4#.#d#i#n#t#x#A#A",
"...d.i.o.t.y.E.J.P.U.Z.4#.#d#i#n#t#x#A#A",
"...d.i.o.t.y.E.J.P.U.Z.4#.#d#i#n#t#x#A#A",
"...d.i.o.t.y.E.J.P.U.Z.4#.#d#i#n#t#x#A#A",
"...d.i.o.t.y.E.J.P.U.Z.4#.#d#i#n#t#x#A#A",
"...d.i.o.t.y.E.J.P.U.Z.4#.#d#i#n#t#x#A#A",
"...d.i.o.t.y.E.J.P.U.Z.4#.#d#i#n#t#x#A#A",
"...d.i.o.t.y.E.J.P.U.Z.4#.#d#i#n#t#x#A#A",
"...d.i.o.t.y.E.J.P.U.Z.4#.#d#i#n#t#x#A#A",
"...d.i.o.t.y.E.J.P.U.Z.4#.#d#i#n#t#x#A#A",
"...d.i.o.t.y.E.J.P.U.Z.4#.#d#i#n#t#x#A#A",
"...d.i.o.t.y.E.J.P.U.Z.4#.#d#i#n#t#x#A#A",
"...d.i.o.t.y.E.J.P.U.Z.4#.#d#i#n#t#x#A#A",
"...d.i.o.t.y.E.J.P.U.Z.4#.#d#i#n#t#x#A#A",
"...d.i.o.t.y.E.J.P.U.Z.4#.#d#i#n#t#x#A#A",
"...d.i.o.t.y.E.J.P.U.Z.4#.#d#i#n#t#x#A#A",
"...d.i.o.t.y.E.J.P.U.Z.4#.#d#i#n#t#x#A#A",
"...d.i.o.t.y.E.J.P.U.Z.4#.#d#i#n#t#x#A#A"
};
