/* XPM */
static char *blue_yellow[] = {
/* width height num_colors chars_per_pixel */
"    20    20      121            2",
/* colors */
".. c #0804f8",
".# c #0808f8",
".a c #080cf8",
".b c #100cf8",
".c c #1010f8",
".d c #1014f8",
".e c #1814f8",
".f c #1818f8",
".g c #181cf8",
".h c #201cf8",
".i c #2020f8",
".j c #2024f8",
".k c #2824f8",
".l c #2828f8",
".m c #282cf8",
".n c #302cf0",
".o c #3030f0",
".p c #3034f0",
".q c #3834f0",
".r c #3838e8",
".s c #3838f0",
".t c #383ce8",
".u c #403ce8",
".v c #4040e0",
".w c #4040e8",
".x c #4044e0",
".y c #4844e0",
".z c #4848d8",
".A c #4848e0",
".B c #484cd8",
".C c #504cd8",
".D c #5050d0",
".E c #5050d8",
".F c #5054d0",
".G c #5854d0",
".H c #5858c8",
".I c #5858d0",
".J c #585cc8",
".K c #605cc8",
".L c #6060c0",
".M c #6060c8",
".N c #6064c0",
".O c #6864c0",
".P c #6868b8",
".Q c #6868c0",
".R c #686cb8",
".S c #706cb8",
".T c #7070b0",
".U c #7070b8",
".V c #7074b0",
".W c #7874b0",
".X c #7878a8",
".Y c #7878b0",
".Z c #787ca8",
".0 c #807ca8",
".1 c #8080a0",
".2 c #8080a8",
".3 c #8084a0",
".4 c #8884a0",
".5 c #888898",
".6 c #8888a0",
".7 c #888c98",
".8 c #908c98",
".9 c #909090",
"#. c #909098",
"## c #909490",
"#a c #989490",
"#b c #989888",
"#c c #989890",
"#d c #989c88",
"#e c #a09c88",
"#f c #a0a080",
"#g c #a0a088",
"#h c #a0a480",
"#i c #a8a480",
"#j c #a8a878",
"#k c #a8a880",
"#l c #a8ac78",
"#m c #b0ac78",
"#n c #b0b070",
"#o c #b0b078",
"#p c #b0b470",
"#q c #b8b470",
"#r c #b8b868",
"#s c #b8b870",
"#t c #b8bc68",
"#u c #c0bc68",
"#v c #c0c060",
"#w c #c0c068",
"#x c #c0c460",
"#y c #c8c460",
"#z c #c8c858",
"#A c #c8c860",
"#B c #c8cc58",
"#C c #d0cc58",
"#D c #d0d050",
"#E c #d0d058",
"#F c #d0d450",
"#G c #d8d450",
"#H c #d8d848",
"#I c #d8d850",
"#J c #d8dc48",
"#K c #e0dc48",
"#L c #e0e040",
"#M c #e0e048",
"#N c #e0e440",
"#O c #e8e440",
"#P c #e8e838",
"#Q c #e8e840",
"#R c #e8ec38",
"#S c #f0ec38",
"#T c #f0f030",
"#U c #f0f430",
"#V c #f8f428",
"#W c #f8f828",
"#X c #f8fc00",
"#Y c #f8fc08",
"#Z c #f8fc10",
"#0 c #f8fc18",
"#1 c #f8fc20",
"#2 c #f8fc28",
/* pixels */
"...d.i.o.u.B.J.P.Y.4###f#o#u#z#H#P#U#1#Z",
"...d.i.o.u.B.J.P.Y.4###f#o#u#z#H#P#U#1#Z",
"...d.i.o.u.B.J.P.Y.4###f#o#u#z#H#P#U#1#Z",
"...d.i.o.u.B.J.P.Y.4###f#o#u#z#H#P#U#1#Z",
"...d.i.o.u.B.J.P.Y.4###f#o#u#z#H#P#U#1#Z",
"...d.i.o.u.B.J.P.Y.4###f#o#u#z#H#P#U#1#Z",
"...d.i.o.u.B.J.P.Y.4###f#o#u#z#H#P#U#1#Z",
"...d.i.o.u.B.J.P.Y.4###f#o#u#z#H#P#U#1#Z",
"...d.i.o.u.B.J.P.Y.4###f#o#u#z#H#P#U#1#Z",
"...d.i.o.u.B.J.P.Y.4###f#o#u#z#H#P#U#1#Z",
"...d.i.o.u.B.J.P.Y.4###f#o#u#z#H#P#U#1#Z",
"...d.i.o.u.B.J.P.Y.4###f#o#u#z#H#P#U#1#Z",
"...d.i.o.u.B.J.P.Y.4###f#o#u#z#H#P#U#1#Z",
"...d.i.o.u.B.J.P.Y.4###f#o#u#z#H#P#U#1#Z",
"...d.i.o.u.B.J.P.Y.4###f#o#u#z#H#P#U#1#Z",
"...d.i.o.u.B.J.P.Y.4###f#o#u#z#H#P#U#1#Z",
"...d.i.o.u.B.J.P.Y.4###f#o#u#z#H#P#U#1#Z",
"...d.i.o.u.B.J.P.Y.4###f#o#u#z#H#P#U#1#Z",
"...d.i.o.u.B.J.P.Y.4###f#o#u#z#H#P#U#1#Z",
"...d.i.o.u.B.J.P.Y.4###f#o#u#z#H#P#U#1#Z"
};
