/* XPM */
static char * cei_60757_xpm[] = {
"20 20 11 1",
" 	c None",
".	c #000000",
"+	c #89591A",
"@	c #FF0000",
"#	c #FFA500",
"$	c #FFFF00",
"%	c #00FF00",
"&	c #0000FF",
"*	c #9100DA",
"=	c #BDBDBD",
"-	c #FFFFFF",
"..++@@##$$%%&&**==--",
"..++@@##$$%%&&**==--",
"..++@@##$$%%&&**==--",
"..++@@##$$%%&&**==--",
"..++@@##$$%%&&**==--",
"..++@@##$$%%&&**==--",
"..++@@##$$%%&&**==--",
"..++@@##$$%%&&**==--",
"..++@@##$$%%&&**==--",
"..++@@##$$%%&&**==--",
"..++@@##$$%%&&**==--",
"..++@@##$$%%&&**==--",
"..++@@##$$%%&&**==--",
"..++@@##$$%%&&**==--",
"..++@@##$$%%&&**==--",
"..++@@##$$%%&&**==--",
"..++@@##$$%%&&**==--",
"..++@@##$$%%&&**==--",
"..++@@##$$%%&&**==--",
"..++@@##$$%%&&**==--"};
