/* XPM */
static char *french[] = {
/* width height num_colors chars_per_pixel */
"    20    20      184            2",
/* colors */
".. c #0804f8",
".# c #0808f8",
".a c #080cf8",
".b c #100cf8",
".c c #1010f8",
".d c #1014f8",
".e c #1814f8",
".f c #1818f8",
".g c #181cf8",
".h c #201cf8",
".i c #2020f8",
".j c #2024f8",
".k c #2824f8",
".l c #2828f8",
".m c #282cf8",
".n c #302cf8",
".o c #3030f8",
".p c #3034f8",
".q c #3834f8",
".r c #3838f8",
".s c #383cf8",
".t c #403cf8",
".u c #4040f8",
".v c #4044f8",
".w c #4844f8",
".x c #4848f8",
".y c #484cf8",
".z c #504cf8",
".A c #5050f8",
".B c #5054f8",
".C c #5854f8",
".D c #5858f8",
".E c #585cf8",
".F c #605cf8",
".G c #6060f8",
".H c #6064f8",
".I c #6864f8",
".J c #6868f8",
".K c #686cf8",
".L c #706cf8",
".M c #7070f8",
".N c #7074f8",
".O c #7874f8",
".P c #7878f8",
".Q c #787cf8",
".R c #807cf8",
".S c #8080f8",
".T c #8084f8",
".U c #8884f8",
".V c #8888f8",
".W c #888cf8",
".X c #908cf8",
".Y c #9090f8",
".Z c #9094f8",
".0 c #9894f8",
".1 c #9898f8",
".2 c #989cf8",
".3 c #a09cf8",
".4 c #a0a0f8",
".5 c #a0a4f8",
".6 c #a8a4f8",
".7 c #a8a8f8",
".8 c #a8acf8",
".9 c #b0acf8",
"#. c #b0b0f8",
"## c #b0b4f8",
"#a c #b8b4f8",
"#b c #b8b8f8",
"#c c #b8bcf8",
"#d c #c0bcf8",
"#e c #c0c0f8",
"#f c #c0c4f8",
"#g c #c8c4f8",
"#h c #c8c8f8",
"#i c #c8ccf8",
"#j c #d0ccf8",
"#k c #d0d0f8",
"#l c #d0d4f8",
"#m c #d8d4f8",
"#n c #d8d8f8",
"#o c #d8dcf8",
"#p c #e0dcf8",
"#q c #e0e0f8",
"#r c #e0e4f8",
"#s c #e8e4f8",
"#t c #e8e8f8",
"#u c #e8ecf8",
"#v c #f0ecf8",
"#w c #f0f0f8",
"#x c #f0f4f8",
"a1 c #f8fcf8",
"a0 c #f8f8f8",
"aZ c #f8f4f8",
"aY c #f8f4f0",
"aX c #f8f0f0",
"aW c #f8ecf0",
"aV c #f8ece8",
"aU c #f8e8e8",
"aT c #f8e4e8",
"aS c #f8e4e0",
"aR c #f8e0e0",
"aQ c #f8dce0",
"aP c #f8dcd8",
"aO c #f8d8d8",
"aN c #f8d4d8",
"aM c #f8d4d0",
"aL c #f8d0d0",
"aK c #f8ccd0",
"aJ c #f8ccc8",
"aI c #f8c8c8",
"aH c #f8c4c8",
"aG c #f8c4c0",
"aF c #f8c0c0",
"aE c #f8bcc0",
"aD c #f8bcb8",
"aC c #f8b8b8",
"aB c #f8b4b8",
"aA c #f8b4b0",
"az c #f8b0b0",
"ay c #f8acb0",
"ax c #f8aca8",
"aw c #f8a8a8",
"av c #f8a4a8",
"au c #f8a4a0",
"at c #f8a0a0",
"as c #f89ca0",
"ar c #f89c98",
"aq c #f89898",
"ap c #f89498",
"ao c #f89490",
"an c #f89090",
"am c #f88c90",
"al c #f88c88",
"ak c #f88888",
"aj c #f88488",
"ai c #f88480",
"ah c #f88080",
"ag c #f87c80",
"af c #f87c78",
"ae c #f87878",
"ad c #f87478",
"ac c #f87470",
"ab c #f87070",
"aa c #f86c70",
"a# c #f86c68",
"a. c #f86868",
"#9 c #f86468",
"#8 c #f86460",
"#7 c #f86060",
"#6 c #f85c60",
"#5 c #f85c58",
"#4 c #f85858",
"#3 c #f85458",
"#2 c #f85450",
"#1 c #f85050",
"#0 c #f84c50",
"#Z c #f84c48",
"#Y c #f84848",
"#X c #f84448",
"#W c #f84440",
"#V c #f84040",
"#U c #f83c40",
"#T c #f83c38",
"#S c #f83838",
"#R c #f83438",
"#Q c #f83430",
"#P c #f83030",
"#O c #f82c30",
"#N c #f82c28",
"#M c #f82828",
"#L c #f82428",
"#K c #f82420",
"#J c #f82020",
"#I c #f81c20",
"#H c #f81c18",
"#G c #f81818",
"#F c #f81418",
"#E c #f81410",
"#D c #f81010",
"#C c #f80c10",
"#B c #f80c08",
"#A c #f80808",
"#z c #f80408",
"#y c #f80400",
/* pixels */
"...j.u.E.P.0#.#j#taZa1aYaUaJazaoae#4#U#J",
"...j.u.E.P.0#.#j#taZa1aYaUaJazaoae#4#U#J",
"...j.u.E.P.0#.#j#taZa1aYaUaJazaoae#4#U#J",
"...j.u.E.P.0#.#j#taZa1aYaUaJazaoae#4#U#J",
"...j.u.E.P.0#.#j#taZa1aYaUaJazaoae#4#U#J",
"...j.u.E.P.0#.#j#taZa1aYaUaJazaoae#4#U#J",
"...j.u.E.P.0#.#j#taZa1aYaUaJazaoae#4#U#J",
"...j.u.E.P.0#.#j#taZa1aYaUaJazaoae#4#U#J",
"...j.u.E.P.0#.#j#taZa1aYaUaJazaoae#4#U#J",
"...j.u.E.P.0#.#j#taZa1aYaUaJazaoae#4#U#J",
"...j.u.E.P.0#.#j#taZa1aYaUaJazaoae#4#U#J",
"...j.u.E.P.0#.#j#taZa1aYaUaJazaoae#4#U#J",
"...j.u.E.P.0#.#j#taZa1aYaUaJazaoae#4#U#J",
"...j.u.E.P.0#.#j#taZa1aYaUaJazaoae#4#U#J",
"...j.u.E.P.0#.#j#taZa1aYaUaJazaoae#4#U#J",
"...j.u.E.P.0#.#j#taZa1aYaUaJazaoae#4#U#J",
"...j.u.E.P.0#.#j#taZa1aYaUaJazaoae#4#U#J",
"...j.u.E.P.0#.#j#taZa1aYaUaJazaoae#4#U#J",
"...j.u.E.P.0#.#j#taZa1aYaUaJazaoae#4#U#J",
"...j.u.E.P.0#.#j#taZa1aYaUaJazaoae#4#U#J"
};
