/* XPM */
static char * rainbow_iso_xpm[] = {
"20 20 21 1",
" 	c None",
".	c #FFFFFF",
"+	c #3D2FA8",
"@	c #4838A6",
"#	c #5440A3",
"$	c #6C4F97",
"%	c #7D5C94",
"&	c #8B678E",
"*	c #987087",
"=	c #FF0000",
"-	c #BB896E",
";	c #C69065",
">	c #CF975C",
",	c #D79C51",
"'	c #E6A740",
")	c #EAAA37",
"!	c #EEAC2E",
"~	c #3C2FA8",
"{	c #BB886E",
"]	c #EDAC2E",
"^	c #4837A6",
".+@#.$%&*==-;>,.')!.",
".+@#.$%&*==-;>,.')!.",
".+@#.$%&*==-;>,.')!.",
".+@#.$%&*==-;>,.')!.",
".+@#.$%&*==-;>,.')!.",
".+@#.$%&*==-;>,.')!.",
".+@#.$%&*==-;>,.')!.",
".+@#.$%&*==-;>,.')!.",
".+@#.$%&*==-;>,.')!.",
".+@#.$%&*==-;>,.')!.",
".~@#.$%&*=={;>,.')].",
".~^#.$%&*=={;>,.')].",
".~^#.$%&*=={;>,.')].",
".~^#.$%&*=={;>,.')].",
".~^#.$%&*=={;>,.')].",
".~^#.$%&*=={;>,.')].",
".~^#.$%&*=={;>,.')].",
".~^#.$%&*=={;>,.')].",
".~^#.$%&*=={;>,.')].",
".~^#.$%&*=={;>,.')]."};
