/* XPM */
static char *chromadepth[] = {
/* width height num_colors chars_per_pixel */
"    20    20      175            2",
/* colors */
".. c #0000f8",
".# c #0004f8",
".a c #0008f8",
".b c #000cf0",
".c c #000cf8",
".d c #0010f0",
".e c #0014e8",
".f c #0018e8",
".g c #001ce0",
".h c #0020e0",
".i c #0024d8",
".j c #0024e0",
".k c #0028d8",
".l c #002cd0",
".m c #002cd8",
".n c #0030d0",
".o c #0034c8",
".p c #0034d0",
".q c #0038c8",
".r c #003cc0",
".s c #0040c0",
".t c #0044b8",
".u c #0048b8",
".v c #004cb0",
".w c #004cb8",
".x c #0050b0",
".y c #0054a8",
".z c #0054b0",
".A c #0058a8",
".B c #005ca0",
".C c #005ca8",
".D c #0060a0",
".E c #006498",
".F c #006898",
".G c #006c90",
".H c #007090",
".I c #007488",
".J c #007888",
".K c #007c80",
".L c #007c88",
".M c #008080",
".N c #008478",
".O c #008480",
".P c #008878",
".Q c #008c70",
".R c #008c78",
".S c #009070",
".T c #009468",
".U c #009868",
".V c #009c60",
".W c #00a060",
".X c #00a458",
".Y c #00a460",
".Z c #00a858",
".0 c #00ac50",
".1 c #00ac58",
".2 c #00b050",
".3 c #00b448",
".4 c #00b450",
".5 c #00b848",
".6 c #00bc40",
".7 c #00c040",
".8 c #00c438",
".9 c #00c838",
"#. c #00cc30",
"## c #00cc38",
"#a c #00d030",
"#b c #00d428",
"#c c #00d430",
"#d c #00d828",
"#e c #00dc20",
"#f c #00dc28",
"#g c #00e020",
"#h c #00e418",
"#i c #00e818",
"#j c #00ec10",
"#k c #00f010",
"#l c #00f408",
"#m c #00f808",
"#n c #00fc00",
"#o c #00fc08",
"#p c #08fc00",
"#q c #10fc00",
"#r c #18fc00",
"#s c #20fc00",
"#t c #28fc00",
"#u c #30fc00",
"#v c #38fc00",
"#w c #40fc00",
"#x c #48fc00",
"#y c #50fc00",
"#z c #58fc00",
"#A c #60fc00",
"#B c #68fc00",
"#C c #70fc00",
"#D c #78fc00",
"#E c #80fc00",
"#F c #88fc00",
"#G c #90fc00",
"#H c #98fc00",
"#I c #a0fc00",
"#J c #a8fc00",
"#K c #b0fc00",
"#L c #b8fc00",
"#M c #c0fc00",
"#N c #c8fc00",
"#O c #d0fc00",
"#P c #d8fc00",
"#Q c #e0fc00",
"#R c #e8fc00",
"#S c #f0fc00",
"aS c #f8fc00",
"aR c #f8f800",
"aQ c #f8f400",
"aP c #f8f000",
"aO c #f8ec00",
"aN c #f8e800",
"aM c #f8e400",
"aL c #f8e000",
"aK c #f8dc00",
"aJ c #f8d800",
"aI c #f8d400",
"aH c #f8d000",
"aG c #f8cc00",
"aF c #f8c800",
"aE c #f8c400",
"aD c #f8c000",
"aC c #f8bc00",
"aB c #f8b800",
"aA c #f8b400",
"az c #f8b000",
"ay c #f8ac00",
"ax c #f8a800",
"aw c #f8a400",
"av c #f8a000",
"au c #f89c00",
"at c #f89800",
"as c #f89400",
"ar c #f89000",
"aq c #f88c00",
"ap c #f88800",
"ao c #f88400",
"an c #f88000",
"am c #f87c00",
"al c #f87800",
"ak c #f87400",
"aj c #f87000",
"ai c #f86c00",
"ah c #f86800",
"ag c #f86400",
"af c #f86000",
"ae c #f85c00",
"ad c #f85800",
"ac c #f85400",
"ab c #f85000",
"aa c #f84c00",
"a# c #f84800",
"a. c #f84400",
"#9 c #f84000",
"#8 c #f83c00",
"#7 c #f83800",
"#6 c #f83400",
"#5 c #f83000",
"#4 c #f82c00",
"#3 c #f82800",
"#2 c #f82400",
"#1 c #f82000",
"#0 c #f81c00",
"#Z c #f81800",
"#Y c #f81400",
"#X c #f81000",
"#W c #f80c00",
"#V c #f80800",
"#U c #f80400",
"#T c #f80000",
/* pixels */
"...k.v.I.U.7#h#q#v#z#E#J#O#SaMaDatakaa#3",
"...k.v.I.U.7#h#q#v#z#E#J#O#SaMaDatakaa#3",
"...k.v.I.U.7#h#q#v#z#E#J#O#SaMaDatakaa#3",
"...k.v.I.U.7#h#q#v#z#E#J#O#SaMaDatakaa#3",
"...k.v.I.U.7#h#q#v#z#E#J#O#SaMaDatakaa#3",
"...k.v.I.U.7#h#q#v#z#E#J#O#SaMaDatakaa#3",
"...k.v.I.U.7#h#q#v#z#E#J#O#SaMaDatakaa#3",
"...k.v.I.U.7#h#q#v#z#E#J#O#SaMaDatakaa#3",
"...k.v.I.U.7#h#q#v#z#E#J#O#SaMaDatakaa#3",
"...k.v.I.U.7#h#q#v#z#E#J#O#SaMaDatakaa#3",
"...k.v.I.U.7#h#q#v#z#E#J#O#SaMaDatakaa#3",
"...k.v.I.U.7#h#q#v#z#E#J#O#SaMaDatakaa#3",
"...k.v.I.U.7#h#q#v#z#E#J#O#SaMaDatakaa#3",
"...k.v.I.U.7#h#q#v#z#E#J#O#SaMaDatakaa#3",
"...k.v.I.U.7#h#q#v#z#E#J#O#SaMaDatakaa#3",
"...k.v.I.U.7#h#q#v#z#E#J#O#SaMaDatakaa#3",
"...k.v.I.U.7#h#q#v#z#E#J#O#SaMaDatakaa#3",
"...k.v.I.U.7#h#q#v#z#E#J#O#SaMaDatakaa#3",
"...k.v.I.U.7#h#q#v#z#E#J#O#SaMaDatakaa#3",
"...k.v.I.U.7#h#q#v#z#E#J#O#SaMaDatakaa#3"
};
