/* XPM */
static char * random_xpm[] = {
"20 20 20 1",
" 	c #A36778",
".	c #916F89",
"+	c #7AA98D",
"@	c #6A7E88",
"#	c #827E84",
"$	c #99967B",
"%	c #759671",
"&	c #A08880",
"*	c #6C8179",
"=	c #89827C",
"-	c #70578C",
";	c #726589",
">	c #76748D",
",	c #AAA1A8",
"'	c #667192",
")	c #A087A7",
"!	c #5FA097",
"~	c #785579",
"{	c #878F65",
"]	c #658298",
" .+@#$%&*=-;>,')!~{]",
" .+@#$%&*=-;>,')!~{]",
" .+@#$%&*=-;>,')!~{]",
" .+@#$%&*=-;>,')!~{]",
" .+@#$%&*=-;>,')!~{]",
" .+@#$%&*=-;>,')!~{]",
" .+@#$%&*=-;>,')!~{]",
" .+@#$%&*=-;>,')!~{]",
" .+@#$%&*=-;>,')!~{]",
" .+@#$%&*=-;>,')!~{]",
" .+@#$%&*=-;>,')!~{]",
" .+@#$%&*=-;>,')!~{]",
" .+@#$%&*=-;>,')!~{]",
" .+@#$%&*=-;>,')!~{]",
" .+@#$%&*=-;>,')!~{]",
" .+@#$%&*=-;>,')!~{]",
" .+@#$%&*=-;>,')!~{]",
" .+@#$%&*=-;>,')!~{]",
" .+@#$%&*=-;>,')!~{]",
" .+@#$%&*=-;>,')!~{]"};
